<svg width="180" height="180" viewBox="0 0 180 180" fill="none" xmlns="http://www.w3.org/2000/svg">
  <defs>
    <linearGradient id="bg" x1="24" y1="18" x2="152" y2="162" gradientUnits="userSpaceOnUse">
      <stop stop-color="#A855F7" />
      <stop offset="1" stop-color="#EC4899" />
    </linearGradient>
    <linearGradient id="shine" x1="42" y1="40" x2="132" y2="138" gradientUnits="userSpaceOnUse">
      <stop stop-color="#FDF2F8" />
      <stop offset="1" stop-color="#FFFFFF" />
    </linearGradient>
  </defs>

  <rect x="10" y="10" width="160" height="160" rx="38" fill="url(#bg)" />
  <rect x="18" y="18" width="144" height="144" rx="30" fill="white" fill-opacity="0.06" />

  <path
    d="M94 38L101.28 60.72L124 68L101.28 75.28L94 98L86.72 75.28L64 68L86.72 60.72L94 38Z"
    fill="url(#shine)"
  />
  <path
    d="M58 90L62.79 104.21L77 109L62.79 113.79L58 128L53.21 113.79L39 109L53.21 104.21L58 90Z"
    fill="url(#shine)"
    fill-opacity="0.95"
  />
  <path
    d="M124 92L128.25 104.75L141 109L128.25 113.25L124 126L119.75 113.25L107 109L119.75 104.75L124 92Z"
    fill="url(#shine)"
    fill-opacity="0.92"
  />

  <circle cx="138" cy="50" r="6" fill="white" fill-opacity="0.35" />
  <circle cx="42" cy="52" r="4" fill="white" fill-opacity="0.28" />
</svg>
